<svg width="26" height="24" viewBox="0 0 26 24" fill="none" xmlns="http://www.w3.org/2000/svg">
<path fill-rule="evenodd" clip-rule="evenodd" d="M18.5072 4.07559C18.5072 3.757 18.1585 3.5612 17.8865 3.72701L10.3485 8.32155L10.1528 8.44085H9.9236H7.1197C6.89424 8.44085 6.71147 8.62362 6.71147 8.84908V12.2305V12.3412V14.2344L18.5072 6.57546V4.07559ZM20.1401 5.5152V4.07559C20.1401 2.48266 18.3968 1.50363 17.0366 2.33269L9.69438 6.80793H7.1197C5.99241 6.80793 5.07856 7.72178 5.07856 8.84908V12.2305V12.3412V15.2134C5.07856 15.2403 5.07908 15.2671 5.08011 15.2937L2.81468 16.7646C2.43649 17.0102 2.32897 17.5159 2.57453 17.894C2.82009 18.2722 3.32574 18.3798 3.70393 18.1342L5.80174 16.7721C6.15734 17.0731 6.61733 17.2546 7.1197 17.2546H9.69438L17.0366 21.7298C18.3968 22.5589 20.1401 21.5798 20.1401 19.9869V12.2405V12.2305V7.46214L23.2821 5.422C23.6603 5.17644 23.7678 4.67079 23.5223 4.2926C23.2767 3.91441 22.771 3.8069 22.3929 4.05246L20.1401 5.5152ZM18.5072 8.5224L7.57352 15.6216H9.9236H10.1528L10.3485 15.7409L17.8865 20.3355C18.1585 20.5013 18.5072 20.3055 18.5072 19.9869V12.2405V12.2305V8.5224Z" fill="#2C4A74"/>
</svg>
