<svg width="62" height="62" viewBox="0 0 62 62" fill="none" xmlns="http://www.w3.org/2000/svg">
<path fill-rule="evenodd" clip-rule="evenodd" d="M31.1366 0.711548C31.827 0.711548 32.3866 1.27119 32.3866 1.96155V6.91598C44.6959 7.54182 54.5796 17.3583 55.3116 29.6393H60.0643C60.7547 29.6393 61.3143 30.1989 61.3143 30.8893C61.3143 31.5796 60.7547 32.1393 60.0643 32.1393H55.3333C54.8079 44.6191 44.8383 54.6565 32.3866 55.2896V59.817C32.3866 60.5074 31.827 61.067 31.1366 61.067C30.4462 61.067 29.8866 60.5074 29.8866 59.817V55.2896C17.4349 54.6565 7.46534 44.6191 6.93987 32.1393H2.20886C1.51851 32.1393 0.958862 31.5796 0.958862 30.8893C0.958862 30.1989 1.51851 29.6393 2.20886 29.6393H6.96158C7.69359 17.3583 17.5773 7.54182 29.8866 6.91598V1.96155C29.8866 1.27119 30.4462 0.711548 31.1366 0.711548ZM52.8066 29.6393C52.0813 18.7395 43.3148 10.0398 32.3866 9.41965L32.3866 15.7334C39.8342 16.3309 45.7889 22.2206 46.4873 29.6393H52.8066ZM46.5216 32.1393H52.8308C52.3093 43.238 43.4571 52.1577 32.3866 52.7859L32.3866 46.472C39.9765 45.8631 46.0159 39.7579 46.5216 32.1393ZM43.9739 29.6393H37.5725C36.8822 29.6393 36.3225 30.1989 36.3225 30.8893C36.3225 31.5796 36.8822 32.1393 37.5725 32.1393H44.0149C43.5197 38.3765 38.5948 43.3662 32.3866 43.9623V37.3252C32.3866 36.6348 31.827 36.0752 31.1366 36.0752C30.4462 36.0752 29.8866 36.6348 29.8866 37.3252V43.9623C23.6784 43.3662 18.7535 38.3765 18.2583 32.1393H24.7007C25.391 32.1393 25.9507 31.5796 25.9507 30.8893C25.9507 30.1989 25.391 29.6393 24.7007 29.6393H18.2993C18.9799 23.6026 23.8207 18.8255 29.8866 18.2432V24.4534C29.8866 25.1437 30.4462 25.7034 31.1366 25.7034C31.827 25.7034 32.3866 25.1437 32.3866 24.4534V18.2432C38.4525 18.8255 43.2933 23.6026 43.9739 29.6393ZM29.8866 52.7859C18.8161 52.1577 9.96386 43.238 9.44239 32.1393H15.7516C16.2573 39.7579 22.2967 45.8631 29.8866 46.472L29.8866 52.7859ZM9.46662 29.6393H15.7859C16.4843 22.2206 22.4389 16.3309 29.8866 15.7334L29.8866 9.41965C18.9584 10.0398 10.1919 18.7395 9.46662 29.6393Z" fill="black"/>
</svg>
