<svg width="32" height="21" viewBox="0 0 32 21" fill="none" xmlns="http://www.w3.org/2000/svg">
<path fill-rule="evenodd" clip-rule="evenodd" d="M12.6868 2.14099C12.9563 1.97666 13.3017 2.17071 13.3017 2.48644V10.5681V10.578V18.2549C13.3017 18.5706 12.9563 18.7647 12.6868 18.6003L5.22016 14.0471L5.02629 13.9288H4.79924H2.02185C1.79852 13.9288 1.61748 13.7477 1.61748 13.5243V10.6778V10.5681V7.21706C1.61748 6.99363 1.79852 6.8125 2.02185 6.8125H4.79924H5.02629L5.22016 6.69427L12.6868 2.14099ZM0 10.5681V7.21706C0 6.09989 0.905214 5.19425 2.02185 5.19425H4.5722L11.845 0.759182C13.1923 -0.062438 14.9191 0.907804 14.9191 2.48644V10.5681V10.578V18.2549C14.9191 19.8335 13.1923 20.8038 11.845 19.9821L4.5722 15.5471H2.02185C0.905215 15.5471 0 14.6414 0 13.5243V10.6778V10.5681Z" fill="#2C4A74"/>
<path fill-rule="evenodd" clip-rule="evenodd" d="M16.0946 5.54605C16.3427 5.17448 16.845 5.0745 17.2164 5.32275C18.0344 5.86957 18.7073 6.60719 19.1771 7.47206C19.6468 8.33692 19.8993 9.3031 19.9128 10.2873C19.9263 11.2715 19.7004 12.2443 19.2546 13.1217C18.8088 13.9992 18.1564 14.755 17.3536 15.3241C16.9892 15.5825 16.4844 15.4963 16.2262 15.1317C15.968 14.7671 16.0541 14.2621 16.4185 14.0037C17.0073 13.5863 17.4857 13.032 17.8127 12.3884C18.1397 11.7449 18.3054 11.0314 18.2955 10.3095C18.2856 9.58767 18.1004 8.87904 17.7559 8.24471C17.4113 7.61039 16.9178 7.06938 16.3178 6.66833C15.9464 6.42008 15.8465 5.91762 16.0946 5.54605Z" fill="#2C4A74"/>
<path fill-rule="evenodd" clip-rule="evenodd" d="M18.0578 2.9084C18.2817 2.52175 18.7765 2.38994 19.163 2.61398C20.4918 3.3843 21.6003 4.48336 22.3823 5.8057C23.1643 7.12803 23.5935 8.62926 23.6287 10.1653C23.6638 11.7013 23.3038 13.2207 22.5832 14.5774C21.8625 15.9342 20.8054 17.0829 19.5133 17.9133C19.1375 18.1548 18.6371 18.0458 18.3957 17.6698C18.1544 17.2938 18.2633 16.7932 18.6391 16.5517C19.698 15.8712 20.5643 14.9299 21.1548 13.818C21.7454 12.7062 22.0404 11.4611 22.0116 10.2024C21.9828 8.94359 21.6311 7.71336 20.9902 6.62972C20.3494 5.54609 19.441 4.64542 18.3521 4.01415C17.9656 3.79011 17.8338 3.29505 18.0578 2.9084Z" fill="#2C4A74"/>
<path fill-rule="evenodd" clip-rule="evenodd" d="M20.9468 0.687964C21.182 0.308072 21.6805 0.190872 22.0602 0.426189C23.7185 1.45386 25.0934 2.88027 26.0598 4.5755C27.0261 6.27073 27.5532 8.18091 27.593 10.1321C27.6328 12.0832 27.184 14.0133 26.2876 15.7466C25.3912 17.4798 24.0755 18.9612 22.4606 20.0556C22.0908 20.3063 21.5879 20.2095 21.3374 19.8395C21.0869 19.4696 21.1836 18.9665 21.5534 18.7158C22.945 17.7728 24.0786 16.4964 24.851 15.0029C25.6234 13.5094 26.0101 11.8463 25.9758 10.1651C25.9415 8.48384 25.4874 6.83792 24.6547 5.3772C23.822 3.91648 22.6373 2.6874 21.2085 1.8019C20.8288 1.56658 20.7116 1.06785 20.9468 0.687964Z" fill="#2C4A74"/>
</svg>
