<svg width="26" height="24" fill="none" xmlns="http://www.w3.org/2000/svg"><path fill-rule="evenodd" clip-rule="evenodd" d="M18.507 4.076a.408.408 0 00-.62-.349l-7.539 4.595-.195.119H7.12a.408.408 0 00-.409.408v5.385l11.796-7.659v-2.5zm1.633 1.44v-1.44c0-1.593-1.743-2.572-3.103-1.743L9.694 6.808H7.12a2.041 2.041 0 00-2.041 2.041v6.364l.001.08-2.265 1.472a.816.816 0 00.889 1.37l2.098-1.363c.355.301.815.483 1.318.483h2.574l7.343 4.475c1.36.829 3.103-.15 3.103-1.743V7.462l3.142-2.04a.817.817 0 00-.89-1.37L20.14 5.515zm-1.633 3.006l-10.933 7.1h2.579l.195.119 7.539 4.595c.271.165.62-.03.62-.35V8.523z" fill="#2C4A74"/></svg>